PathFileType	4	(X/Y/Z)	/Users/visionmauri/Downloads/Videos/OAW07-top_Sports2D/OAW07-top_Sports2D_px_person00.trc
DataRate	CameraRate	NumFrames	NumMarkers	Units	OrigDataRate	OrigDataStartFrame	OrigNumFrames
30.0	30.0	13	22	m	30.0	1134	3025
Frame#	Time	Hip			RHip			RKnee			RAnkle			RBigToe			RSmallToe			RHeel			LHip			LKnee			LAnkle			LBigToe			LSmallToe			LHeel			Neck			Head			Nose			RShoulder			RElbow			RWrist			LShoulder			LElbow			LWrist			
		X1	Y1	Z1	X2	Y2	Z2	X3	Y3	Z3	X4	Y4	Z4	X5	Y5	Z5	X6	Y6	Z6	X7	Y7	Z7	X8	Y8	Z8	X9	Y9	Z9	X10	Y10	Z10	X11	Y11	Z11	X12	Y12	Z12	X13	Y13	Z13	X14	Y14	Z14	X15	Y15	Z15	X16	Y16	Z16	X17	Y17	Z17	X18	Y18	Z18	X19	Y19	Z19	X20	Y20	Z20	X21	Y21	Z21	X22	Y22	Z22
1134	37.81249999999999	510.51963948531966	682.0316766630905	0.0	490.2962804846245	684.506192831512	0.0	497.15489696938033	770.8121830040606	0.0	499.6891650147061	868.1985005417424	0.0	504.61917095367403	902.3865773908169	0.0	492.2152514323337	901.3560380265732	0.0	499.7919318812093	885.6376141800298	0.0	530.8417880532685	685.3815729424199	0.0	526.417084171413	774.9175624036221	0.0	514.457131261464	840.4236762576279	0.0	508.4890085621074	880.7718516309114	0.0	516.4949761435187	873.9946023823978	0.0	512.885766091225	852.7980660392033	0.0	508.8905632493283	557.7466309482224	0.0	510.539255783967	498.1068995900104	0.0	508.03999246327265	540.8948295140335	0.0	464.7030270272194	566.6144879170015	0.0	451.8349384592892	631.8646549180573	0.0	453.5939013738175	681.6285907301851	0.0	555.6988081463211	566.8466008655605	0.0	570.8504840258139	626.0243381144063	0.0	573.4292009350853	674.3217089876325	0.0
1135	37.84584435626102	510.06500355140645	682.5101781109453	0.0	489.43514655198976	684.8465546517939	0.0	496.52700510690124	770.8109016557331	0.0	499.44298361289293	869.389130645032	0.0	504.4311154050704	903.2322689232745	0.0	491.9472036632524	902.2461276344557	0.0	499.36979456018224	885.4391299066813	0.0	530.0584456892718	685.4442896420395	0.0	527.3466615017534	775.5337084055577	0.0	515.9494991700227	838.0866285235999	0.0	510.2418165774998	878.5699089956237	0.0	518.3393650367241	872.1902683992381	0.0	514.9262013736814	848.2786196614612	0.0	508.6845739442017	557.941597683155	0.0	510.01202363977535	496.9254017013841	0.0	507.85753335376916	541.9655241052222	0.0	463.87508397518894	565.7278669380246	0.0	450.9949185288013	632.4627824423842	0.0	452.6020172144303	684.1157676316667	0.0	555.5889361659034	566.1436431737326	0.0	570.7352417484266	626.6914836301991	0.0	573.4901911579427	676.1198963935384	0.0
1136	37.879188712522044	509.8124294554808	682.609576777795	0.0	488.8388059917945	685.0738449303536	0.0	495.5316172167491	772.970508922322	0.0	499.2774099386842	871.3198986681388	0.0	504.56742525763724	904.3244928382245	0.0	491.7819939901527	903.2416261777084	0.0	499.21369738971185	885.7458441229559	0.0	529.3430434099903	685.4106537081063	0.0	528.6789562708664	775.8989999638964	0.0	518.926497612621	834.3672710497142	0.0	514.378581370896	873.3521921910967	0.0	522.9706245381531	868.0831029773041	0.0	517.7789254547666	840.0985778788811	0.0	508.27247542049093	557.361066526	0.0	509.17317845084347	493.81611039329096	0.0	507.5936276260076	540.3314637693172	0.0	463.0399099975098	564.7172414488602	0.0	449.96285403607715	632.517923610777	0.0	451.5524400437202	685.9294278904597	0.0	555.5445558732764	565.2069188924927	0.0	570.4791157932435	627.6478014307235	0.0	573.4247903168487	678.3939295842911	0.0
1137	37.91253306878306	509.9141658514182	682.3890217861323	0.0	488.90451344554447	685.2481740295196	0.0	494.7304469494917	776.7545437938796	0.0	499.1857985324398	873.127094920004	0.0	504.7301803913943	905.7182884488631	0.0	491.80226415963	904.2416731569162	0.0	499.34620782056015	886.1436581402785	0.0	529.4475563447264	685.0864918807297	0.0	530.464010238411	776.1650710695735	0.0	522.4573686931246	832.7433759879088	0.0	519.1967676839431	870.6145167004989	0.0	529.4632627267044	866.4343169525059	0.0	520.3869038129882	835.3713292547463	0.0	507.8736104519866	555.7467700667244	0.0	508.36056252899107	490.2734773551243	0.0	507.2823643945018	535.4090026670294	0.0	462.64621560951394	564.0732483390059	0.0	449.2089903945657	632.4605421536883	0.0	450.3160904876411	686.9982659278904	0.0	555.9621024736423	564.4077064513151	0.0	570.2002635953367	628.6120583221661	0.0	573.4532972289435	680.7032200330118	0.0
1138	37.94587742504409	510.35109034465876	681.5856894213617	0.0	489.2221671479687	684.9770143115894	0.0	494.3939438708271	780.0828589199881	0.0	498.9539648893625	874.2562472329348	0.0	504.60869590163315	906.655719437481	0.0	491.8711420486774	904.8289692283898	0.0	499.54173824522434	886.2605562194934	0.0	530.6596068997662	684.0423627276074	0.0	532.0324484404947	776.3292383122041	0.0	525.6821751731844	835.1956187704637	0.0	523.8248458461425	873.0543117212521	0.0	535.8325745448777	869.2093460118436	0.0	522.2628234785996	837.5770110836073	0.0	507.793968588379	554.199589007953	0.0	507.8089996291408	487.7372832794165	0.0	507.08638078501417	530.750147746911	0.0	462.6112787717983	563.8457600456729	0.0	448.7167788681224	632.2793072320604	0.0	449.23916292733446	687.0969411178851	0.0	556.9054741386675	564.0001970917784	0.0	569.9785767624837	629.5286197728511	0.0	573.8722033567	682.7031369506467	0.0
1139	37.979221781305114	511.0195257151634	680.5802102803573	0.0	489.3630551131425	684.4261201876686	0.0	494.33885110672014	781.7351671873163	0.0	498.6051937441556	874.701307304307	0.0	504.62786168831775	906.6888570222778	0.0	491.88385087363935	904.767296806572	0.0	499.61364349211493	886.1073364148264	0.0	532.4121802755037	682.8133798843787	0.0	532.8535032681787	776.6547966390273	0.0	528.3635731736304	841.6205959991034	0.0	527.7433840502329	879.9687264622586	0.0	540.4310032076424	875.8381656947263	0.0	524.0710468358257	845.9600771261937	0.0	507.9986897300248	553.5962904872172	0.0	507.1718485720657	486.4339568654076	0.0	507.03485717534073	529.0270752438408	0.0	462.5733168057462	563.7859817632798	0.0	448.1480148936879	631.7937539665738	0.0	448.7410467395252	686.578966908005	0.0	557.7962234412545	563.9047293771899	0.0	569.8977286258718	630.4626031088745	0.0	574.5679041001086	684.4061760097428	0.0
1140	38.01256613756613	511.61010454711527	680.6679902782349	0.0	489.36944907443484	684.8540858517283	0.0	494.32102974142765	782.3468823879892	0.0	498.3212713836241	874.7934732640175	0.0	505.04336043227806	906.4195794212842	0.0	491.739668415286	904.4523126110433	0.0	499.54275051069646	885.8757385374324	0.0	533.7285409949922	683.0017127023159	0.0	533.320181876502	777.6495460262687	0.0	530.6639931784678	851.0514811766312	0.0	530.1916371241607	889.21186323701	0.0	543.0143266528686	885.0199563579707	0.0	526.3427722339635	858.5933746313867	0.0	508.24956733484197	553.5388162753436	0.0	506.22093234921533	485.98993526200513	0.0	507.0711033471806	529.2714781076496	0.0	462.44530190999103	563.8592863947309	0.0	447.3790703163209	631.1696654008234	0.0	448.6671091286653	686.0623728875353	0.0	558.1431752494009	563.8971034078274	0.0	569.9267537316754	631.2516423369825	0.0	575.0290805971161	686.003159515007	0.0
1141	38.04591049382716	511.7601366196821	682.3854948247526	0.0	489.3703299207696	686.8106553228647	0.0	494.3171138410069	783.1202904686917	0.0	498.1473850592642	874.9230594445662	0.0	505.13839401079565	906.5868418917655	0.0	491.2882546538503	904.3906257633934	0.0	499.51975383781206	885.7160393274106	0.0	534.1469702799254	685.1285222907436	0.0	534.0655250764146	779.6623161523161	0.0	532.9314467269533	862.2073823165024	0.0	531.3131500556271	899.1042114707261	0.0	544.8600826914101	895.5926960635122	0.0	528.9089719078481	873.0097870532734	0.0	508.37167857788853	553.5865816880412	0.0	505.29394502657817	485.95367826526973	0.0	507.00300917162787	529.5397783731645	0.0	462.26502234165685	564.3027355282102	0.0	446.4849193173415	630.7772127251004	0.0	448.62704309651735	685.6775932512978	0.0	558.024341145442	564.0484223276528	0.0	570.04170197926	631.972900034172	0.0	575.0852547000442	687.7679728236096	0.0
1142	38.07925485008818	511.53364478936305	684.669359465777	0.0	489.2799484931735	689.1908847063246	0.0	494.34390823319774	784.8459667244136	0.0	498.0205637325901	875.0678973885872	0.0	504.3924741649315	906.927595674509	0.0	490.6452291889259	904.3388183754864	0.0	499.76761200658956	885.5475448774737	0.0	533.9904780081902	687.7602903532147	0.0	535.1104520859794	782.9213572742948	0.0	535.326737399121	873.7761499666726	0.0	532.1300786737391	909.1453839416414	0.0	547.1097818332839	906.5803370686795	0.0	531.5467979916624	886.8266838690834	0.0	508.21403829843894	554.1554839191245	0.0	504.3945720496865	485.4726394503573	0.0	506.47093721211155	529.1838280483286	0.0	462.01878515286216	565.5308743623161	0.0	445.58351914078304	631.0592898732181	0.0	448.54498296436924	685.3253259545174	0.0	557.7409740654816	564.684152529035	0.0	570.3247865342368	633.2541718350919	0.0	575.072488813771	689.90129014663	0.0
1143	38.1125992063492	511.37786340695135	686.6023164381083	0.0	489.0418212974469	691.1283582935462	0.0	494.30183626915453	787.4109935780689	0.0	497.91914536409234	874.9560053344193	0.0	503.5297180813608	906.8803012691284	0.0	490.2790776563538	903.9043646665504	0.0	500.1241526329446	885.2479935331197	0.0	533.8363539931805	689.9006838846653	0.0	536.1797514028173	787.2501545934967	0.0	537.5679088890856	884.5254874819427	0.0	532.8728859459586	918.5266021033896	0.0	549.120366254798	916.5965925965617	0.0	534.1171341106028	898.5499804454765	0.0	507.73586840193894	555.6015739605014	0.0	503.27518015271744	484.38262347721087	0.0	505.5691571064635	528.8048903113398	0.0	461.7428674349643	567.6768140821046	0.0	444.91097668973634	632.2232252461658	0.0	448.4114620809629	684.9185008592472	0.0	557.479686507618	565.9416028780939	0.0	570.7034850989301	635.4078527433938	0.0	575.2684624879184	692.3029950478652	0.0
1144	38.14594356261023	511.5886740178558	688.718913039545	0.0	488.9877907563258	693.2511293699714	0.0	494.07517598218715	789.960520161984	0.0	497.7484191333965	874.6705693125443	0.0	503.47631431704946	906.5046469563672	0.0	490.3388121653753	903.3848411123765	0.0	499.99598817393775	885.1048017368447	0.0	534.0089184189482	692.3794090372631	0.0	537.1550936585423	791.6387698740493	0.0	539.1088878157053	893.0354611186239	0.0	532.7470301999082	925.2529139738444	0.0	549.5468232384237	923.9173626240489	0.0	536.1150232025707	907.1148433733091	0.0	507.2729076493664	557.0894146468015	0.0	502.34811136014395	484.1669234847693	0.0	505.06064063325647	528.8834149171353	0.0	461.56428039748477	570.0859749892771	0.0	444.6505919567468	633.7676537314439	0.0	448.1314452400191	684.3553694073702	0.0	557.4374868931536	567.7217401627067	0.0	570.9738940171028	637.9590898471007	0.0	575.5133521992236	694.8680880543214	0.0
1145	38.179287918871246	512.0694052830966	691.6099679708815	0.0	489.47229605184015	696.2069374862352	0.0	493.80511175652356	792.0343343240048	0.0	497.48477719223996	874.5137607943893	0.0	504.09617305091245	906.3171797563107	0.0	490.41589600000367	903.3756756137606	0.0	499.19407709795854	885.3728973773192	0.0	534.4929006684957	695.8590884868358	0.0	537.8452830815769	795.107923910363	0.0	539.4832809324472	898.5869422386213	0.0	531.3669319712102	928.4674916092242	0.0	548.2510187257501	928.0194746726424	0.0	536.8488385164734	912.3470483011039	0.0	507.4146678473949	558.1819564592395	0.0	502.3542282426636	486.34570487084306	0.0	505.5604642864587	529.6983788728534	0.0	461.70869224039836	572.2004822347757	0.0	444.6931446238688	635.3495283030296	0.0	447.77391285779913	684.056751326491	0.0	557.9189184263545	570.0081422755723	0.0	571.3070060939988	640.4633452634307	0.0	575.6301644091949	697.6496696177668	0.0
1146	38.21263227513227	512.6162454651941	694.71391322668	0.0	490.230940554696	699.5621433967905	0.0	493.87552028319146	793.9792175456607	0.0	497.4278043304592	874.6034855246594	0.0	504.54697149441654	906.9610629455087	0.0	490.20571458088745	904.12477304081	0.0	498.3840595966391	885.6643289772348	0.0	535.1330745841284	699.5885942244045	0.0	538.0299352931681	797.9567771589894	0.0	538.579807106927	902.480899664224	0.0	529.2865970437674	930.8489146455463	0.0	546.0462789543827	930.9696317907906	0.0	536.0755326846927	916.019183783767	0.0	508.53399289564715	560.6335698052444	0.0	503.93426866622946	491.22222832668973	0.0	507.12140255118607	532.7394012058367	0.0	462.3252285699841	574.4142493040827	0.0	444.8329802811987	637.4538205094252	0.0	447.47354789248743	684.8373478942245	0.0	559.0105192615387	572.9526625999353	0.0	572.2116033610102	643.2111076211619	0.0	575.8595044105117	700.6614812102221	0.0
